Coordinates
version=1
nRows=19
nColumns=34
inDegrees=yes

Units are S.I. units (second, meters, Newtons, ...)
If the header above contains a line with 'inDegrees', this indicates whether rotational values are in degrees (yes) or radians (no).

endheader
time	pelvis_tilt	pelvis_list	pelvis_rotation	pelvis_tx	pelvis_ty	pelvis_tz	hip_flexion_r	hip_adduction_r	hip_rotation_r	knee_angle_r	ankle_angle_r	subtalar_angle_r	mtp_angle_r	hip_flexion_l	hip_adduction_l	hip_rotation_l	knee_angle_l	ankle_angle_l	subtalar_angle_l	mtp_angle_l	lumbar_extension	lumbar_bending	lumbar_rotation	arm_flex_r	arm_add_r	arm_rot_r	elbow_flex_r	pro_sup_r	arm_flex_l	arm_add_l	arm_rot_l	elbow_flex_l	pro_sup_l
      0.00000000	     -2.58259819	      0.83850034	     -3.21211808	      1.81676301	      0.88396627	     -0.17924015	      5.35887295	     -5.85683097	     -4.41817576	      7.94229328	      3.30940748	    -11.56531205	      0.00000000	      2.10990260	     -3.66344442	     -6.67828652	      4.41577353	      6.45454715	     -0.87153344	      0.00000000	    -13.13599762	      1.21558749	     -2.86139732	     19.02461295	      0.90235757	     38.84724374	     55.55377884	     88.97076970	      7.07177804	     -4.68158542	     27.10365285	     57.43157617	     77.30779746
      0.01666670	     -4.25464119	      1.04589957	     -2.94135328	      1.81833266	      0.88321873	     -0.17951293	      7.23784941	     -5.83201551	     -3.40889105	      8.39722388	      6.58018198	     -9.15626807	      0.00000000	      4.71543993	     -3.21842024	     -6.76537366	      5.02015819	      7.43058300	      1.07456794	      0.00000000	    -10.71625899	      1.46095323	     -2.57408093	     18.19093602	      2.07658043	     35.53371586	     53.34761113	     88.31769291	      7.16268821	     -3.92377191	     26.05091858	     55.05080147	     76.73667952
      0.03333330	     -4.28821643	      1.50431731	     -3.02643481	      1.81843114	      0.88404624	     -0.17894252	      6.88919935	     -6.33209225	     -3.63048532	      7.59622364	      6.80299524	     -9.23529329	      0.00000000	      4.62669621	     -2.92934337	     -7.02074939	      4.62239687	      7.05212825	      1.14480466	      0.00000000	    -10.95723812	      0.79025892	     -2.10604885	     18.25586785	      2.24315552	     35.14213002	     53.04943523	     88.26936014	      7.83200406	     -4.30568983	     25.78397047	     54.80291314	     76.64032549
      0.05000000	     -3.24640083	      1.68793544	     -3.09904193	      1.81829501	      0.88646644	     -0.17848565	      5.46590989	     -6.57635096	     -3.49190589	      7.04921202	      7.11708176	     -9.10522994	      0.00000000	      2.84017534	     -2.64824191	     -6.80307426	      3.45287578	      6.61979750	      0.73809591	      0.00000000	    -12.33796526	      0.43384428	     -1.46643749	     18.44640566	      2.33173842	     34.42974803	     52.88798460	     88.16389772	      8.93408268	     -4.68618205	     26.33448660	     54.37543917	     76.67997011
      0.06666670	     -3.30139348	      1.75288987	     -3.00747994	      1.81854331	      0.88672297	     -0.17843867	      5.40632445	     -6.57786650	     -3.50158794	      6.83137643	      7.19384010	     -9.15600403	      0.00000000	      2.80037961	     -2.58745691	     -6.74970930	      3.19411079	      6.71040085	      0.68795446	      0.00000000	    -12.41808627	      0.48527363	     -1.38801354	     18.36347727	      2.41676558	     34.49283936	     52.96926329	     88.16331997	      9.10325173	     -4.86060663	     26.35693482	     54.38347617	     76.69558755
      0.08333330	     -1.93816052	      1.70129023	     -2.83845653	      1.81893014	      0.88871004	     -0.17896264	      3.39226261	     -6.48950576	     -3.43702793	      5.97693828	      6.78826518	     -9.75451283	      0.00000000	      0.87948098	     -2.49070149	     -5.74059994	      2.32929351	      6.13760678	     -0.20710884	      0.00000000	    -14.20784563	      0.39995671	     -1.38998677	     18.40250009	      1.66804293	     35.40006264	     55.26582009	     88.04647006	     10.10955496	     -5.44361560	     28.82649455	     54.82230339	     77.33666640
      0.10000000	     -1.90081072	      1.73748940	     -2.90773021	      1.81934264	      0.88887980	     -0.17950476	      3.33168489	     -6.50621153	     -3.43511112	      5.89878677	      6.81698444	     -9.79293377	      0.00000000	      0.82460413	     -2.43655388	     -5.71205028	      2.33570785	      6.15039909	     -0.24237734	      0.00000000	    -14.13415477	      0.41427827	     -1.41161098	     18.29184695	      1.68027990	     35.46748711	     55.34362102	     88.03902688	     10.17120048	     -5.37898356	     28.92630724	     54.87924120	     77.36730651
      0.11666670	     -1.30715145	      1.70304466	     -2.69530749	      1.81986276	      0.88985812	     -0.18029758	      2.25673112	     -6.46367318	     -3.27951531	      5.25743967	      6.16597400	    -10.43985325	      0.00000000	     -0.06411900	     -2.36327802	     -4.86677328	      1.85935760	      5.59874909	     -1.19588078	      0.00000000	    -15.03084245	      0.44682826	     -1.23801088	     18.03126280	      0.63696816	     36.64691922	     57.84189199	     87.76766945	     10.89881707	     -5.88901655	     31.47613499	     55.40917341	     78.21475068
      0.13333330	     -1.27826077	      1.70509137	     -2.74969483	      1.82005296	      0.89010944	     -0.18012735	      2.20904934	     -6.45534372	     -3.24702917	      5.20922845	      6.18905378	    -10.44656166	      0.00000000	     -0.11344848	     -2.34877035	     -4.85429325	      1.90084689	      5.57367270	     -1.20619945	      0.00000000	    -14.95120144	      0.40776218	     -1.29244357	     17.98880961	      0.59681374	     36.65322511	     57.86900831	     87.75608905	     10.93707304	     -5.83861248	     31.52797825	     55.43543096	     78.23629028
      0.15000000	     -1.23129106	      1.71353842	     -2.69136830	      1.82059851	      0.89008179	     -0.17978135	      1.96162482	     -6.43649791	     -3.06290838	      4.92263984	      6.19899383	    -10.43631138	      0.00000000	     -0.23462080	     -2.32768705	     -4.76316566	      1.84709871	      5.42693188	     -1.24349490	      0.00000000	    -14.82965307	      0.34019257	     -1.42013256	     17.75790686	      0.37866164	     36.73186713	     58.02075936	     87.72050554	     10.95402755	     -5.88125881	     31.72747846	     55.47798508	     78.31572081
      0.16666670	     -1.24717095	      1.70143846	     -2.77407575	      1.82106010	      0.88999250	     -0.17916607	      1.84644797	     -6.37567374	     -3.11024721	      4.64141061	      6.14687648	    -10.50813830	      0.00000000	     -0.33526039	     -2.34939833	     -4.62554451	      1.71848446	      5.28900271	     -1.27095662	      0.00000000	    -14.86853821	      0.35955375	     -1.32667888	     17.72647580	      0.32536153	     36.81099871	     58.24258474	     87.69093511	     10.91456860	     -6.09259640	     31.88575649	     55.47190980	     78.38405430
      0.18333330	     -0.59161110	      1.61789722	     -2.63597253	      1.82143295	      0.89089407	     -0.17933345	      0.79055813	     -6.27646051	     -2.88325539	      4.12782532	      5.33296512	    -11.25194065	      0.00000000	     -1.26692439	     -2.37343195	     -3.89998568	      1.30689234	      4.49073257	     -2.40898041	      0.00000000	    -15.75883706	      0.40013068	     -1.08112854	     17.52277478	     -0.64075835	     37.41847151	     60.42909586	     87.22993315	     11.67476146	     -6.60578537	     33.92253116	     56.09871718	     79.29671421
      0.20000000	     -0.61615016	      1.60986078	     -2.71907506	      1.82169842	      0.89130670	     -0.17916879	      0.78904220	     -6.26393698	     -2.90921837	      4.07641148	      5.34707851	    -11.27517054	      0.00000000	     -1.27695778	     -2.38915881	     -3.89415434	      1.31486513	      4.46581122	     -2.40144664	      0.00000000	    -15.74961943	      0.38865971	     -1.10735378	     17.48895086	     -0.68297058	     37.40923155	     60.42161720	     87.22148548	     11.69940892	     -6.62643689	     33.92702870	     56.09722783	     79.30672097
      0.21666670	     -0.64603632	      1.57462732	     -2.72130774	      1.82201557	      0.89175532	     -0.17856445	      0.68398122	     -6.19423414	     -3.02896497	      3.88043234	      5.30961041	    -11.38851676	      0.00000000	     -1.27899588	     -2.46319598	     -3.95092696	      1.28636244	      4.26950785	     -2.39000329	      0.00000000	    -15.66540450	      0.32806822	     -1.08031992	     17.37131550	     -0.84870379	     37.37354906	     60.42105553	     87.17921744	     11.77688038	     -6.87544499	     33.92614576	     56.06110707	     79.35685812
      0.23333330	     -0.65909724	      1.57030216	     -2.82016890	      1.82211314	      0.89182909	     -0.17793354	      0.67867045	     -6.18154437	     -3.06869609	      3.81618536	      5.28471606	    -11.42160832	      0.00000000	     -1.29297748	     -2.48784654	     -3.93339778	      1.29485976	      4.21131609	     -2.37085480	      0.00000000	    -15.65931082	      0.31714444	     -1.11490575	     17.34313170	     -0.87959802	     37.36349658	     60.42480953	     87.16872703	     11.81965664	     -6.89186355	     33.93459171	     56.06365512	     79.36965990
      0.25000000	     -0.69712112	      1.53109299	     -2.87598753	      1.82226720	      0.89157588	     -0.17748862	      0.65668863	     -6.09720718	     -3.12932044	      3.63829438	      5.21830193	    -11.49044158	      0.00000000	     -1.28859244	     -2.57125270	     -3.92914031	      1.24654531	      4.05957971	     -2.33409122	      0.00000000	    -15.65931694	      0.24376770	     -1.14744299	     17.29817323	     -0.95357637	     37.33665333	     60.43253339	     87.14541300	     11.93715841	     -7.03357463	     33.92033137	     56.04689170	     79.39496297
      0.26666670	     -0.68994377	      1.54009032	     -2.87495784	      1.82254484	      0.89168136	     -0.17763784	      0.66105594	     -6.09354612	     -3.12911787	      3.63474797	      5.21745214	    -11.49073691	      0.00000000	     -1.28685154	     -2.57678079	     -3.92923170	      1.24474499	      4.05820667	     -2.33390100	      0.00000000	    -15.65914686	      0.24357169	     -1.14768960	     17.29796437	     -0.95401054	     37.33638821	     60.43271030	     87.14518217	     11.93844377	     -7.03454019	     33.92024324	     56.04685653	     79.39520962
      0.28333330	     -0.37603535	      1.45207051	     -2.74857953	      1.82315015	      0.89213507	     -0.17765163	     -0.16546567	     -5.89507688	     -2.44405011	      2.72328701	      3.79314332	    -13.10983944	      0.00000000	     -1.86976411	     -2.70112525	     -3.60157393	      0.74584488	      3.17948924	     -2.62785558	      0.00000000	    -16.00503835	      0.15681433	     -0.96073242	     16.91442001	     -1.08888026	     36.63325186	     60.98075290	     86.35514022	     12.68332064	     -7.26622388	     34.94872083	     55.74960426	     80.27892571
      0.30000000	     -0.40845518	      1.43955446	     -2.80848196	      1.82344629	      0.89210877	     -0.17783244	     -0.13355789	     -5.87157261	     -2.44379176	      2.65005349	      3.80377258	    -13.11135964	      0.00000000	     -1.86296609	     -2.72591433	     -3.61540425	      0.70704372	      3.16407667	     -2.62213590	      0.00000000	    -15.99528687	      0.13698790	     -1.01693685	     16.88488844	     -1.13291019	     36.62040021	     60.97374458	     86.34236491	     12.74827486	     -7.26640178	     34.94473435	     55.75502902	     80.29070484
